inDegrees=no
num_controls=7
num_derivatives=13
num_iterations=77
num_multipliers=7
num_parameters=0
num_slacks=7
num_states=26
objective=0.339892
objective_accelerations=0.018759
objective_balance=0.001272
objective_effort=0.021063
objective_height=0.297281
objective_ligament=0.001517
solver_duration=818.268487
status=Solve_Succeeded
success=true
DataType=double
version=3
OpenSimVersion=4.5
endheader
time	/jointset/ground_pelvis/pelvis_tilt/value	/jointset/ground_pelvis/pelvis_tx/value	/jointset/ground_pelvis/pelvis_ty/value	/jointset/hip_r/hip_flexion_r/value	/jointset/hip_r/hip_adduction_r/value	/jointset/hip_r/hip_rotation_r/value	/jointset/back/lumbar_extension/value	/jointset/patellofemoral_r/patellar_flexion_r/value	/jointset/knee_r/knee_flexion_r/value	/jointset/knee_r/knee_adduction_r/value	/jointset/knee_r/knee_rotation_r/value	/jointset/ankle_r/ankle_angle_r/value	/jointset/subtalar_r/subtalar_angle_r/value	/jointset/ground_pelvis/pelvis_tilt/speed	/jointset/ground_pelvis/pelvis_tx/speed	/jointset/ground_pelvis/pelvis_ty/speed	/jointset/hip_r/hip_flexion_r/speed	/jointset/hip_r/hip_adduction_r/speed	/jointset/hip_r/hip_rotation_r/speed	/jointset/back/lumbar_extension/speed	/jointset/patellofemoral_r/patellar_flexion_r/speed	/jointset/knee_r/knee_flexion_r/speed	/jointset/knee_r/knee_adduction_r/speed	/jointset/knee_r/knee_rotation_r/speed	/jointset/ankle_r/ankle_angle_r/speed	/jointset/subtalar_r/subtalar_angle_r/speed	/forceset/tau_hip_flexion_r	/forceset/tau_hip_adduction_r	/forceset/tau_hip_rotation_r	/forceset/tau_knee_flexion_r	/forceset/tau_ankle_angle_r	/forceset/tau_subtalar_angle_r	/forceset/tau_lumbar_extension	lambda_cid13_p0	lambda_cid14_p0	lambda_cid14_p1	lambda_cid14_p2	lambda_cid14_p3	lambda_cid14_p4	lambda_cid14_p5	/jointset/ground_pelvis/pelvis_tilt/accel	/jointset/ground_pelvis/pelvis_tx/accel	/jointset/ground_pelvis/pelvis_ty/accel	/jointset/hip_r/hip_flexion_r/accel	/jointset/hip_r/hip_adduction_r/accel	/jointset/hip_r/hip_rotation_r/accel	/jointset/back/lumbar_extension/accel	/jointset/patellofemoral_r/patellar_flexion_r/accel	/jointset/knee_r/knee_flexion_r/accel	/jointset/knee_r/knee_adduction_r/accel	/jointset/knee_r/knee_rotation_r/accel	/jointset/ankle_r/ankle_angle_r/accel	/jointset/subtalar_r/subtalar_angle_r/accel	gamma_cid13_p0	gamma_cid14_p0	gamma_cid14_p1	gamma_cid14_p2	gamma_cid14_p3	gamma_cid14_p4	gamma_cid14_p5
0.5	0.01738447242854089	0.07900982101863774	0.8620077453585606	0.5471698989874505	-0.2259124693479908	-0.1483740092952162	-0.6127069900746877	0.7903732699259959	0.7903732699259947	-0.01077192493684962	0.174507118783816	0.3103370462954549	0.1408156697180835	0.02896739425532446	-0.1354322119400115	-0.2759249578793742	0.9742207537871541	0.00115836537215548	0.1227312993148636	-0.7311292625231853	1.434069304594087	1.434069304594121	-0.3917853678021787	-4.921328091716123e-05	0.5300044291590661	0.216608470247827	-0.1006515503455237	0.01988742451182878	0.01875956756892601	-0.2871889353021309	-0.03077648622457018	-0.01440800963789016	0.1786819732856167	-16.87357975043807	-54.42390381481535	-14.2799541904531	0.9775628077432746	5.896666686389922	-652.7547211239512	53.12009100341596	-0.2740647636528466	0.1333593785969509	-0.2139180521187262	-0.4372264230585831	-0.1598136281366067	-0.5502206340755056	1.18139213806241	-1.362075890888889	-1.362075890888896	0.3715063493419999	-0.02221663680190099	-0.7881356209980036	-0.3285444586441761	-3.052673785933219e-08	-8.497950393952676e-09	2.710308592095521e-07	-2.556470923996844e-07	-2.834875462864031e-08	-3.079345664316515e-08	2.853733927194682e-07
0.51	0.01766037882286671	0.07766229626054004	0.8592383760317878	0.5568891146042104	-0.2259089279063137	-0.1471743314167814	-0.6199583432613081	0.8046440244314319	0.8046440244314298	-0.01467077735990444	0.1745059159028224	0.3155969241312734	0.1429647760412768	0.02621477095295366	-0.1340607276332283	-0.2778877430338231	0.9695007499971797	-0.0004327223242243571	0.117177502511819	-0.7190649338838619	1.419890484063026	1.419890484063015	-0.3879954998979592	-0.0001762212921884703	0.5219000080085029	0.2131941495309399	-0.103702108482977	0.02115629229756687	0.01890848914127173	-0.2914561481378738	-0.03150553495547818	-0.0139146963349984	0.1821495690096524	-16.1754430464941	-54.82225993011795	-14.30017615511157	1.168935119699089	5.980595614575813	-655.2955385649186	53.17329803613352	-0.2757298809421754	0.1408398181294591	-0.178290473033271	-0.5076320909401861	-0.156183509937597	-0.5620256642644677	1.230419364575679	-1.474446025055205	-1.474446025061803	0.3811929625132431	-0.005716881926034717	-0.8322714031643325	-0.3506690101165781	-2.871170842546113e-08	-1.038848319302165e-08	2.151053198351348e-07	-3.123299508018106e-07	-2.141725492285244e-08	-3.419319557100765e-08	2.708317011601811e-07
0.52	0.01790878523067191	0.07632884571779264	0.8564512125082837	0.566557481236271	-0.2259207827755268	-0.1460310047985366	-0.6270867599339944	0.8187672585533857	0.8187672585533877	-0.01853203791362864	0.1745038881419942	0.3207736225473709	0.1450791805309172	0.0234673969540898	-0.132617368869952	-0.2794837972254503	0.9640509568482872	-0.001920896802543337	0.1114610472749507	-0.706541959736207	1.404565227898334	1.404565227898278	-0.3842669939316711	-0.0002141892489156607	0.5133685452147759	0.2096681035378223	-0.1067526666203966	0.02242516008328843	0.01905741071367502	-0.2957233609736151	-0.03223458368639939	-0.01342138303214192	0.1856171647337225	-15.47683853930648	-55.22689197799605	-14.32143152745204	1.360397315119433	6.072432230053134	-657.9199370193111	53.2541400145988	-0.2730149029513371	0.1477342698955606	-0.1405718595543934	-0.5831842948421629	-0.1392309845244245	-0.5827523208402325	1.273121239728807	-1.591363017615076	-1.591363017615081	0.359233961755739	-0.004408625893077044	-0.8735439496308155	-0.350889513890323	-2.637412035822872e-08	-1.199659892870182e-08	1.614590151840496e-07	-3.6404044668105e-07	-1.472940926303558e-08	-3.870359324023795e-08	2.572017498902101e-07
0.53	0.01812976913867155	0.07501018483807921	0.8536499307858333	0.5761677159293264	-0.2259471823160118	-0.1449446257545043	-0.6340877106773759	0.8327317478602807	0.8327317478602875	-0.02235531725989133	0.1745014782890627	0.3258629164984	0.1471574586985161	0.02073485582989173	-0.1311030419118122	-0.2807099290035558	0.9578720864707444	-0.003354448373953722	0.105861878574869	-0.6935796555723713	1.388160572030101	1.388160572030101	-0.3803240296740376	-0.0002812931598245746	0.5044240197407637	0.2059467819663128	-0.1097377590363322	0.02356746304499294	0.01923130413739226	-0.3000196678917689	-0.032802568601144	-0.01294451770666401	0.189024373343889	-14.77888665759428	-55.57766827714909	-14.34401896927905	1.556204826636702	6.122795820463717	-660.4914477899601	53.34533787476725	-0.2725549335211016	0.1550444395975504	-0.1042493122891874	-0.6538250401336263	-0.1447899630596064	-0.5414873297849124	1.318065010002823	-1.690821059947835	-1.690821059939351	0.4215605611554602	-0.009955666721039154	-0.9148424822395654	-0.3888917028653426	-2.561257624969854e-08	-1.433940422325737e-08	1.189679525993316e-07	-4.144998206840337e-07	-8.991320917074605e-09	-4.203574625025699e-08	2.441372807248067e-07
0.54	0.01832359139214186	0.07370701973411239	0.8508382646505301	0.5857124445924172	-0.2259877919161514	-0.143912836034498	-0.6409569823780618	0.8465270297707937	0.8465270297707956	-0.02613722038290829	0.174497978518418	0.3308607780674972	0.1491972960055803	0.01803506605103308	-0.129518213720627	-0.2815606797958475	0.9509497508562815	-0.00476290872976391	0.100543182467077	-0.6802061511968657	1.370723748621041	1.370723748621097	-0.37599174928086	-0.0004321727919865808	0.4950820688286174	0.2019799314314353	-0.1127228514522287	0.02470976600670304	0.01940519756105639	-0.3043159748099279	-0.03337055351589386	-0.01246765238117736	0.1924315819540904	-14.08276934561307	-55.935073497753	-14.36697107540554	1.751161752133032	6.180224286703032	-663.1540092273767	53.4697770576067	-0.2664646338833626	0.1618345165046546	-0.06549566239161968	-0.731877342226166	-0.1342127414043875	-0.5266578023822822	1.355361282062901	-1.797796525780603	-1.797796525780605	0.4370971888645646	-0.02116377014369216	-0.9530290372576385	-0.3999953065639449	-2.659474035079638e-08	-1.749505754039846e-08	8.881885996038175e-08	-4.635749747388198e-07	-4.304027897081868e-09	-4.406430942455292e-08	2.316984513346693e-07
0.55	0.01849059096821768	0.07242004856750175	0.8480199754932136	0.5951842617431168	-0.2260424585899767	-0.1429330300851749	-0.6476904967560881	0.8601429110689904	0.8601429110689941	-0.02987375475702959	0.1744929765612742	0.3357632862237212	0.1511960723771293	0.01537279693034918	-0.1278648440814902	-0.2820334138355025	0.943290037252065	-0.00617150332060363	0.09541997933379909	-0.6664328032481577	1.352287911214351	1.352287911214395	-0.3712676751667405	-0.0005311555931181711	0.4853591340155719	0.1977260819009625	-0.1156596494937537	0.02578917630395997	0.01958803562204981	-0.3085853265343982	-0.03383280112383953	-0.01203219128638365	0.1957885722104666	-13.38976123446512	-56.25822250207494	-14.40746708234207	1.955266419810197	6.214451803234194	-665.7545773788992	53.56508268804292	-0.2649185443786417	0.1687641662187594	-0.02861063408716874	-0.8015679950578691	-0.1444208792436049	-0.5049204516033203	1.397909725422124	-1.891161892791846	-1.891161892793587	0.4971778573485238	0.001205484417012437	-0.9909897278644385	-0.4455163705634835	-2.64630994158798e-08	-2.005747054937201e-08	5.467018680422552e-08	-5.048081576412082e-07	6.667480429480402e-10	-4.617362763916215e-08	2.158982215188148e-07
